<svg width="244" height="244" viewBox="0 0 244 244" fill="none" xmlns="http://www.w3.org/2000/svg">
<circle cx="4.78431" cy="4.78431" r="4.78431" fill="#676767"/>
<circle cx="38.2745" cy="4.78431" r="4.78431" fill="#676767"/>
<circle cx="71.7647" cy="4.78431" r="4.78431" fill="#676767"/>
<circle cx="105.255" cy="4.78431" r="4.78431" fill="#676767"/>
<circle cx="138.745" cy="4.78431" r="4.78431" fill="#676767"/>
<circle cx="172.235" cy="4.78431" r="4.78431" fill="#676767"/>
<circle cx="205.725" cy="4.78431" r="4.78431" fill="#676767"/>
<circle cx="239.216" cy="4.78431" r="4.78431" fill="#676767"/>
<circle cx="4.78431" cy="38.2745" r="4.78431" fill="#676767"/>
<circle cx="38.2745" cy="38.2745" r="4.78431" fill="#676767"/>
<circle cx="71.7647" cy="38.2745" r="4.78431" fill="#676767"/>
<circle cx="105.255" cy="38.2745" r="4.78431" fill="#676767"/>
<circle cx="138.745" cy="38.2745" r="4.78431" fill="#676767"/>
<circle cx="172.235" cy="38.2745" r="4.78431" fill="#676767"/>
<circle cx="205.725" cy="38.2745" r="4.78431" fill="#676767"/>
<circle cx="239.216" cy="38.2745" r="4.78431" fill="#676767"/>
<circle cx="4.78431" cy="71.7647" r="4.78431" fill="#676767"/>
<circle cx="38.2745" cy="71.7647" r="4.78431" fill="#676767"/>
<circle cx="71.7647" cy="71.7647" r="4.78431" fill="#676767"/>
<circle cx="105.255" cy="71.7647" r="4.78431" fill="#676767"/>
<circle cx="138.745" cy="71.7647" r="4.78431" fill="#676767"/>
<circle cx="172.235" cy="71.7647" r="4.78431" fill="#676767"/>
<circle cx="205.725" cy="71.7647" r="4.78431" fill="#676767"/>
<circle cx="239.216" cy="71.7647" r="4.78431" fill="#676767"/>
<circle cx="4.78431" cy="105.255" r="4.78431" fill="#676767"/>
<circle cx="38.2745" cy="105.255" r="4.78431" fill="#676767"/>
<circle cx="71.7647" cy="105.255" r="4.78431" fill="#676767"/>
<circle cx="105.255" cy="105.255" r="4.78431" fill="#676767"/>
<circle cx="138.745" cy="105.255" r="4.78431" fill="#676767"/>
<circle cx="172.235" cy="105.255" r="4.78431" fill="#676767"/>
<circle cx="205.725" cy="105.255" r="4.78431" fill="#676767"/>
<circle cx="239.216" cy="105.255" r="4.78431" fill="#676767"/>
<circle cx="4.78431" cy="138.745" r="4.78431" fill="#676767"/>
<circle cx="38.2745" cy="138.745" r="4.78431" fill="#676767"/>
<circle cx="71.7647" cy="138.745" r="4.78431" fill="#676767"/>
<circle cx="105.255" cy="138.745" r="4.78431" fill="#676767"/>
<circle cx="138.745" cy="138.745" r="4.78431" fill="#676767"/>
<circle cx="172.235" cy="138.745" r="4.78431" fill="#676767"/>
<circle cx="205.725" cy="138.745" r="4.78431" fill="#676767"/>
<circle cx="239.216" cy="138.745" r="4.78431" fill="#676767"/>
<circle cx="4.78431" cy="172.235" r="4.78431" fill="#676767"/>
<circle cx="38.2745" cy="172.235" r="4.78431" fill="#676767"/>
<circle cx="71.7647" cy="172.235" r="4.78431" fill="#676767"/>
<circle cx="105.255" cy="172.235" r="4.78431" fill="#676767"/>
<circle cx="138.745" cy="172.235" r="4.78431" fill="#676767"/>
<circle cx="172.235" cy="172.235" r="4.78431" fill="#676767"/>
<circle cx="205.725" cy="172.235" r="4.78431" fill="#676767"/>
<circle cx="239.216" cy="172.235" r="4.78431" fill="#676767"/>
<circle cx="4.78431" cy="205.725" r="4.78431" fill="#676767"/>
<circle cx="38.2745" cy="205.725" r="4.78431" fill="#676767"/>
<circle cx="71.7647" cy="205.725" r="4.78431" fill="#676767"/>
<circle cx="105.255" cy="205.725" r="4.78431" fill="#676767"/>
<circle cx="138.745" cy="205.725" r="4.78431" fill="#676767"/>
<circle cx="172.235" cy="205.725" r="4.78431" fill="#676767"/>
<circle cx="205.725" cy="205.725" r="4.78431" fill="#676767"/>
<circle cx="239.216" cy="205.725" r="4.78431" fill="#676767"/>
<circle cx="4.78431" cy="239.216" r="4.78431" fill="#676767"/>
<circle cx="38.2745" cy="239.216" r="4.78431" fill="#676767"/>
<circle cx="71.7647" cy="239.216" r="4.78431" fill="#676767"/>
<circle cx="105.255" cy="239.216" r="4.78431" fill="#676767"/>
<circle cx="138.745" cy="239.216" r="4.78431" fill="#676767"/>
<circle cx="172.235" cy="239.216" r="4.78431" fill="#676767"/>
<circle cx="205.725" cy="239.216" r="4.78431" fill="#676767"/>
<circle cx="239.216" cy="239.216" r="4.78431" fill="#676767"/>
</svg>
